<svg xmlns="http://www.w3.org/2000/svg" viewBox="0 0 48 48" fill="none">
  <!-- Circular container with national tricolor subtle border -->
  <circle cx="24" cy="24" r="22" fill="#002855" stroke="#FF9933" stroke-width="2"/>
  <circle cx="24" cy="24" r="20" fill="#0A1E3F" stroke="#138808" stroke-width="1.5" stroke-dasharray="2 2"/>
  
  <!-- Central Ayurvedic Ashoka / Sun / Lotus Radiance -->
  <circle cx="24" cy="24" r="8" fill="#F8FAFC" opacity="0.1"/>
  
  <!-- Ashoka Chakra 24-spoke stylized center -->
  <circle cx="24" cy="24" r="5.5" stroke="#FFFFFF" stroke-width="1.2" fill="none"/>
  <circle cx="24" cy="24" r="1.5" fill="#FFFFFF"/>
  <path d="M24 18.5V29.5M18.5 24H29.5M20.1 20.1L27.9 27.9M20.1 27.9L27.9 20.1" stroke="#FFFFFF" stroke-width="0.8"/>
  
  <!-- Ayurvedic Leaf / Wisdom Flanks -->
  <path d="M12 24C12 17 19 14 24 14C29 14 36 17 36 24C36 31 29 34 24 34C19 34 12 31 12 24Z" stroke="#FF9933" stroke-width="1.2" stroke-linecap="round" fill="none" opacity="0.85"/>
  <path d="M15 24C15 20 19 17 24 17C29 17 33 20 33 24C33 28 29 31 24 31C19 31 15 28 15 24Z" stroke="#138808" stroke-width="1" fill="none" opacity="0.85"/>
  
  <!-- Top Golden Radiance Tip -->
  <circle cx="24" cy="9" r="1.5" fill="#FF9933"/>
  <circle cx="24" cy="39" r="1.5" fill="#138808"/>
</svg>
